P3
15 10
255
255 255 255 255 255 255 210 116 36 210 116 36 210 116 36 210 116 36 210 116 36 210 116 36 210 116 36 210 116 36 210 116 36 210 116 36 210 116 36 255 255 255 255 255 255 
0 132 0 0 132 0 255 255 255 255 255 255 255 255 255 255 255 255 255 255 255 210 116 36 210 116 36 210 116 36 210 116 36 210 116 36 210 116 36 255 255 255 0 132 0 
0 132 0 0 132 0 255 255 255 210 116 36 210 116 36 210 116 36 210 116 36 210 116 36 210 116 36 210 116 36 210 116 36 210 116 36 255 255 255 255 255 255 0 132 0 
0 132 0 210 116 36 255 255 255 255 255 255 255 255 255 255 255 255 255 255 255 255 255 255 255 255 255 255 255 255 255 255 255 0 132 0 210 116 36 255 255 255 0 132 0 
0 132 0 210 116 36 255 255 255 255 255 255 0 132 0 0 132 0 255 255 255 255 255 255 255 255 255 255 255 255 0 132 0 210 116 36 210 116 36 255 255 255 0 132 0 
0 132 0 210 116 36 255 255 255 0 132 0 0 132 0 0 132 0 255 255 255 255 255 255 255 255 255 255 255 255 0 132 0 210 116 36 255 255 255 255 255 255 0 132 0 
0 132 0 210 116 36 255 255 255 0 132 0 0 132 0 0 132 0 0 132 0 0 132 0 0 132 0 0 132 0 0 132 0 0 132 0 255 255 255 255 255 255 0 132 0 
0 132 0 0 132 0 210 116 36 210 116 36 210 116 36 210 116 36 210 116 36 210 116 36 210 116 36 210 116 36 255 255 255 0 132 0 255 255 255 0 132 0 0 132 0 
0 132 0 0 132 0 210 116 36 255 255 255 255 255 255 0 132 0 255 255 255 255 255 255 0 132 0 210 116 36 255 255 255 0 132 0 0 132 0 0 132 0 0 132 0 
0 132 0 0 132 0 210 116 36 255 255 255 0 132 0 0 132 0 0 132 0 255 255 255 255 255 255 0 132 0 255 255 255 255 255 255 0 132 0 0 132 0 0 132 0 

